<?xml version="1.0" standalone="no"?>
<!DOCTYPE svg PUBLIC "-//W3C//DTD SVG 20010904//EN"
 "http://www.w3.org/TR/2001/REC-SVG-20010904/DTD/svg10.dtd">
<svg version="1.0" xmlns="http://www.w3.org/2000/svg"
 width="225.000000pt" height="225.000000pt" viewBox="0 0 225.000000 225.000000"
 preserveAspectRatio="xMidYMid meet">

<g transform="translate(0.000000,225.000000) scale(0.100000,-0.100000)"
fill="#000000" stroke="none">
<path d="M190 1875 l0 -95 109 0 109 0 223 -537 c123 -296 234 -548 246 -561
l22 -22 410 0 410 0 26 23 c19 16 61 117 170 410 80 213 145 398 145 412 0 13
-12 37 -26 54 l-26 31 -661 2 -660 3 -61 144 c-89 213 -113 231 -320 231
l-116 0 0 -95z"/>
<path d="M913 540 c-60 -36 -82 -125 -47 -191 15 -31 80 -68 118 -69 34 0 101
38 119 69 23 39 22 108 -3 148 -37 62 -124 82 -187 43z"/>
<path d="M1584 551 c-27 -12 -72 -66 -80 -97 -16 -64 28 -143 92 -164 139 -46
244 124 141 228 -29 28 -44 35 -84 38 -26 2 -57 0 -69 -5z"/>
</g>
</svg>
